<svg xmlns="http://www.w3.org/2000/svg" viewBox="0 0 512 512" role="img" aria-labelledby="title">
  <title>OpenFlow</title>
  <defs>
    <linearGradient id="ring" x1="128" y1="126" x2="384" y2="388" gradientUnits="userSpaceOnUse">
      <stop offset="0" stop-color="#0F172A"/>
      <stop offset="0.34" stop-color="#0E7490"/>
      <stop offset="0.68" stop-color="#06B6D4"/>
      <stop offset="1" stop-color="#67E8F9"/>
    </linearGradient>
    <radialGradient id="shine" cx="0.75" cy="0.72" r="0.55">
      <stop offset="0" stop-color="#ECFEFF" stop-opacity="0.95"/>
      <stop offset="0.28" stop-color="#67E8F9" stop-opacity="0.52"/>
      <stop offset="1" stop-color="#67E8F9" stop-opacity="0"/>
    </radialGradient>
    <filter id="soft-shadow" x="-20%" y="-20%" width="140%" height="140%">
      <feDropShadow dx="0" dy="12" stdDeviation="18" flood-color="#0A0E1A" flood-opacity="0.18"/>
    </filter>
  </defs>
  <rect x="12" y="12" width="488" height="488" rx="104" fill="#F5F4EF"/>
  <rect x="12" y="12" width="488" height="488" rx="104" fill="none" stroke="#E0DED6" stroke-width="8"/>
  <g filter="url(#soft-shadow)">
    <circle cx="256" cy="256" r="138" fill="url(#ring)"/>
    <circle cx="256" cy="256" r="138" fill="url(#shine)"/>
    <circle cx="256" cy="256" r="92" fill="#F5F4EF"/>
    <g fill="#0E7490">
      <rect x="246" y="183" width="20" height="146" rx="10"/>
      <rect x="214" y="207" width="18" height="98" rx="9"/>
      <rect x="280" y="207" width="18" height="98" rx="9"/>
      <rect x="183" y="230" width="16" height="52" rx="8"/>
      <rect x="313" y="230" width="16" height="52" rx="8"/>
      <rect x="153" y="244" width="14" height="24" rx="7"/>
      <rect x="345" y="244" width="14" height="24" rx="7"/>
    </g>
  </g>
</svg>
